<mxfile host="app.diagrams.net" agent="Mozilla/5.0 (Windows NT 10.0; Win64; x64) AppleWebKit/537.36 (KHTML, like Gecko) Chrome/131.0.0.0 Safari/537.36" version="24.8.9">
  <diagram name="Página-1" id="eJ5SNzkH92zZutRSa_Fz">
    <mxGraphModel grid="1" page="1" gridSize="10" guides="1" tooltips="1" connect="1" arrows="1" fold="1" pageScale="1" pageWidth="827" pageHeight="1169" math="0" shadow="0">
      <root>
        <mxCell id="0" />
        <mxCell id="1" parent="0" />
        <mxCell id="10" value="Categoria" style="swimlane;fontStyle=1;align=center;verticalAlign=top;childLayout=stackLayout;horizontal=1;startSize=28.4;horizontalStack=0;resizeParent=1;resizeParentMax=0;resizeLast=0;collapsible=0;marginBottom=0;" vertex="1" parent="1">
          <mxGeometry x="1386" y="560" width="250" height="148.4" as="geometry" />
        </mxCell>
        <mxCell id="11" value="+ Category ID (PK)&#xa;" style="text;strokeColor=none;fillColor=none;align=left;verticalAlign=top;spacingLeft=4;spacingRight=4;overflow=hidden;rotatable=0;points=[[0,0.5],[1,0.5]];portConstraint=eastwest;" vertex="1" parent="10">
          <mxGeometry y="28.4" width="250" height="28" as="geometry" />
        </mxCell>
        <mxCell id="12" style="line;strokeWidth=1;fillColor=none;align=left;verticalAlign=middle;spacingTop=-1;spacingLeft=3;spacingRight=3;rotatable=0;labelPosition=right;points=[];portConstraint=eastwest;strokeColor=inherit;" vertex="1" parent="10">
          <mxGeometry y="56.4" width="250" height="8" as="geometry" />
        </mxCell>
        <mxCell id="13" value="+ Category Name   &#xa;&#xa;" style="text;strokeColor=none;fillColor=none;align=left;verticalAlign=top;spacingLeft=4;spacingRight=4;overflow=hidden;rotatable=0;points=[[0,0.5],[1,0.5]];portConstraint=eastwest;" vertex="1" parent="10">
          <mxGeometry y="64.4" width="250" height="28" as="geometry" />
        </mxCell>
        <mxCell id="14" value="+ Category Image" style="text;strokeColor=none;fillColor=none;align=left;verticalAlign=top;spacingLeft=4;spacingRight=4;overflow=hidden;rotatable=0;points=[[0,0.5],[1,0.5]];portConstraint=eastwest;" vertex="1" parent="10">
          <mxGeometry y="92.4" width="250" height="28" as="geometry" />
        </mxCell>
        <mxCell id="15" value="+ Created At" style="text;strokeColor=none;fillColor=none;align=left;verticalAlign=top;spacingLeft=4;spacingRight=4;overflow=hidden;rotatable=0;points=[[0,0.5],[1,0.5]];portConstraint=eastwest;" vertex="1" parent="10">
          <mxGeometry y="120.4" width="250" height="28" as="geometry" />
        </mxCell>
        <mxCell id="16" value="Fornecedor" style="swimlane;fontStyle=1;align=center;verticalAlign=top;childLayout=stackLayout;horizontal=1;startSize=26.857142857142858;horizontalStack=0;resizeParent=1;resizeParentMax=0;resizeLast=0;collapsible=0;marginBottom=0;" vertex="1" parent="1">
          <mxGeometry x="1280" y="30" width="241" height="196.85714285714286" as="geometry" />
        </mxCell>
        <mxCell id="17" value="+ Supplier ID (PK)" style="text;strokeColor=none;fillColor=none;align=left;verticalAlign=top;spacingLeft=4;spacingRight=4;overflow=hidden;rotatable=0;points=[[0,0.5],[1,0.5]];portConstraint=eastwest;" vertex="1" parent="16">
          <mxGeometry y="26.857142857142858" width="241" height="27" as="geometry" />
        </mxCell>
        <mxCell id="18" style="line;strokeWidth=1;fillColor=none;align=left;verticalAlign=middle;spacingTop=-1;spacingLeft=3;spacingRight=3;rotatable=0;labelPosition=right;points=[];portConstraint=eastwest;strokeColor=inherit;" vertex="1" parent="16">
          <mxGeometry y="53.85714285714286" width="241" height="8" as="geometry" />
        </mxCell>
        <mxCell id="19" value="+ Supplier Name" style="text;strokeColor=none;fillColor=none;align=left;verticalAlign=top;spacingLeft=4;spacingRight=4;overflow=hidden;rotatable=0;points=[[0,0.5],[1,0.5]];portConstraint=eastwest;" vertex="1" parent="16">
          <mxGeometry y="61.85714285714286" width="241" height="27" as="geometry" />
        </mxCell>
        <mxCell id="20" value="+ Contact Info" style="text;strokeColor=none;fillColor=none;align=left;verticalAlign=top;spacingLeft=4;spacingRight=4;overflow=hidden;rotatable=0;points=[[0,0.5],[1,0.5]];portConstraint=eastwest;" vertex="1" parent="16">
          <mxGeometry y="88.85714285714286" width="241" height="27" as="geometry" />
        </mxCell>
        <mxCell id="21" value="+ Supplier Image" style="text;strokeColor=none;fillColor=none;align=left;verticalAlign=top;spacingLeft=4;spacingRight=4;overflow=hidden;rotatable=0;points=[[0,0.5],[1,0.5]];portConstraint=eastwest;" vertex="1" parent="16">
          <mxGeometry y="115.85714285714286" width="241" height="27" as="geometry" />
        </mxCell>
        <mxCell id="22" value="+ Adress" style="text;strokeColor=none;fillColor=none;align=left;verticalAlign=top;spacingLeft=4;spacingRight=4;overflow=hidden;rotatable=0;points=[[0,0.5],[1,0.5]];portConstraint=eastwest;" vertex="1" parent="16">
          <mxGeometry y="142.85714285714286" width="241" height="27" as="geometry" />
        </mxCell>
        <mxCell id="23" value="+ Created At" style="text;strokeColor=none;fillColor=none;align=left;verticalAlign=top;spacingLeft=4;spacingRight=4;overflow=hidden;rotatable=0;points=[[0,0.5],[1,0.5]];portConstraint=eastwest;" vertex="1" parent="16">
          <mxGeometry y="169.85714285714286" width="241" height="27" as="geometry" />
        </mxCell>
        <mxCell id="24" value="UnidadesProduto" style="swimlane;fontStyle=1;align=center;verticalAlign=top;childLayout=stackLayout;horizontal=1;startSize=32;horizontalStack=0;resizeParent=1;resizeParentMax=0;resizeLast=0;collapsible=0;marginBottom=0;" vertex="1" parent="1">
          <mxGeometry x="2220" y="400" width="236" height="104" as="geometry" />
        </mxCell>
        <mxCell id="25" value="+ Unit ID (PK)" style="text;strokeColor=none;fillColor=none;align=left;verticalAlign=top;spacingLeft=4;spacingRight=4;overflow=hidden;rotatable=0;points=[[0,0.5],[1,0.5]];portConstraint=eastwest;" vertex="1" parent="24">
          <mxGeometry y="32" width="236" height="32" as="geometry" />
        </mxCell>
        <mxCell id="26" style="line;strokeWidth=1;fillColor=none;align=left;verticalAlign=middle;spacingTop=-1;spacingLeft=3;spacingRight=3;rotatable=0;labelPosition=right;points=[];portConstraint=eastwest;strokeColor=inherit;" vertex="1" parent="24">
          <mxGeometry y="64" width="236" height="8" as="geometry" />
        </mxCell>
        <mxCell id="27" value="+ Unit Type" style="text;strokeColor=none;fillColor=none;align=left;verticalAlign=top;spacingLeft=4;spacingRight=4;overflow=hidden;rotatable=0;points=[[0,0.5],[1,0.5]];portConstraint=eastwest;" vertex="1" parent="24">
          <mxGeometry y="72" width="236" height="32" as="geometry" />
        </mxCell>
        <mxCell id="28" value="Produto" style="swimlane;fontStyle=1;align=center;verticalAlign=top;childLayout=stackLayout;horizontal=1;startSize=24.6875;horizontalStack=0;resizeParent=1;resizeParentMax=0;resizeLast=0;collapsible=0;marginBottom=0;" vertex="1" parent="1">
          <mxGeometry x="1828" y="50" width="240" height="407.6875" as="geometry" />
        </mxCell>
        <mxCell id="29" value="+ Product ID (PK)" style="text;strokeColor=none;fillColor=none;align=left;verticalAlign=top;spacingLeft=4;spacingRight=4;overflow=hidden;rotatable=0;points=[[0,0.5],[1,0.5]];portConstraint=eastwest;" vertex="1" parent="28">
          <mxGeometry y="24.6875" width="240" height="25" as="geometry" />
        </mxCell>
        <mxCell id="30" value="+ Product Stock" style="text;strokeColor=none;fillColor=none;align=left;verticalAlign=top;spacingLeft=4;spacingRight=4;overflow=hidden;rotatable=0;points=[[0,0.5],[1,0.5]];portConstraint=eastwest;" vertex="1" parent="28">
          <mxGeometry y="49.6875" width="240" height="25" as="geometry" />
        </mxCell>
        <mxCell id="31" value="+ Product Stock Min" style="text;strokeColor=none;fillColor=none;align=left;verticalAlign=top;spacingLeft=4;spacingRight=4;overflow=hidden;rotatable=0;points=[[0,0.5],[1,0.5]];portConstraint=eastwest;" vertex="1" parent="28">
          <mxGeometry y="74.6875" width="240" height="25" as="geometry" />
        </mxCell>
        <mxCell id="32" value="+ Category ID (FK)" style="text;strokeColor=none;fillColor=none;align=left;verticalAlign=top;spacingLeft=4;spacingRight=4;overflow=hidden;rotatable=0;points=[[0,0.5],[1,0.5]];portConstraint=eastwest;" vertex="1" parent="28">
          <mxGeometry y="99.6875" width="240" height="25" as="geometry" />
        </mxCell>
        <mxCell id="33" value="+ Supplier ID (FK)" style="text;strokeColor=none;fillColor=none;align=left;verticalAlign=top;spacingLeft=4;spacingRight=4;overflow=hidden;rotatable=0;points=[[0,0.5],[1,0.5]];portConstraint=eastwest;" vertex="1" parent="28">
          <mxGeometry y="124.6875" width="240" height="25" as="geometry" />
        </mxCell>
        <mxCell id="34" value="+ Unit ID (FK)" style="text;strokeColor=none;fillColor=none;align=left;verticalAlign=top;spacingLeft=4;spacingRight=4;overflow=hidden;rotatable=0;points=[[0,0.5],[1,0.5]];portConstraint=eastwest;" vertex="1" parent="28">
          <mxGeometry y="149.6875" width="240" height="25" as="geometry" />
        </mxCell>
        <mxCell id="35" value="+ Product Cost Value" style="text;strokeColor=none;fillColor=none;align=left;verticalAlign=top;spacingLeft=4;spacingRight=4;overflow=hidden;rotatable=0;points=[[0,0.5],[1,0.5]];portConstraint=eastwest;" vertex="1" parent="28">
          <mxGeometry y="174.6875" width="240" height="25" as="geometry" />
        </mxCell>
        <mxCell id="36" value="+ Product Sell Value" style="text;strokeColor=none;fillColor=none;align=left;verticalAlign=top;spacingLeft=4;spacingRight=4;overflow=hidden;rotatable=0;points=[[0,0.5],[1,0.5]];portConstraint=eastwest;" vertex="1" parent="28">
          <mxGeometry y="199.6875" width="240" height="25" as="geometry" />
        </mxCell>
        <mxCell id="37" style="line;strokeWidth=1;fillColor=none;align=left;verticalAlign=middle;spacingTop=-1;spacingLeft=3;spacingRight=3;rotatable=0;labelPosition=right;points=[];portConstraint=eastwest;strokeColor=inherit;" vertex="1" parent="28">
          <mxGeometry y="224.6875" width="240" height="8" as="geometry" />
        </mxCell>
        <mxCell id="38" value="+ Product Name" style="text;strokeColor=none;fillColor=none;align=left;verticalAlign=top;spacingLeft=4;spacingRight=4;overflow=hidden;rotatable=0;points=[[0,0.5],[1,0.5]];portConstraint=eastwest;" vertex="1" parent="28">
          <mxGeometry y="232.6875" width="240" height="25" as="geometry" />
        </mxCell>
        <mxCell id="39" value="+ Description" style="text;strokeColor=none;fillColor=none;align=left;verticalAlign=top;spacingLeft=4;spacingRight=4;overflow=hidden;rotatable=0;points=[[0,0.5],[1,0.5]];portConstraint=eastwest;" vertex="1" parent="28">
          <mxGeometry y="257.6875" width="240" height="25" as="geometry" />
        </mxCell>
        <mxCell id="40" value="+ Product Image   &#xa;" style="text;strokeColor=none;fillColor=none;align=left;verticalAlign=top;spacingLeft=4;spacingRight=4;overflow=hidden;rotatable=0;points=[[0,0.5],[1,0.5]];portConstraint=eastwest;" vertex="1" parent="28">
          <mxGeometry y="282.6875" width="240" height="25" as="geometry" />
        </mxCell>
        <mxCell id="41" value="+ Product Brand" style="text;strokeColor=none;fillColor=none;align=left;verticalAlign=top;spacingLeft=4;spacingRight=4;overflow=hidden;rotatable=0;points=[[0,0.5],[1,0.5]];portConstraint=eastwest;" vertex="1" parent="28">
          <mxGeometry y="307.6875" width="240" height="25" as="geometry" />
        </mxCell>
        <mxCell id="42" value="+ Product Model" style="text;strokeColor=none;fillColor=none;align=left;verticalAlign=top;spacingLeft=4;spacingRight=4;overflow=hidden;rotatable=0;points=[[0,0.5],[1,0.5]];portConstraint=eastwest;" vertex="1" parent="28">
          <mxGeometry y="332.6875" width="240" height="25" as="geometry" />
        </mxCell>
        <mxCell id="43" value="+ Is Perishable" style="text;strokeColor=none;fillColor=none;align=left;verticalAlign=top;spacingLeft=4;spacingRight=4;overflow=hidden;rotatable=0;points=[[0,0.5],[1,0.5]];portConstraint=eastwest;" vertex="1" parent="28">
          <mxGeometry y="357.6875" width="240" height="25" as="geometry" />
        </mxCell>
        <mxCell id="44" value="+ Created At" style="text;strokeColor=none;fillColor=none;align=left;verticalAlign=top;spacingLeft=4;spacingRight=4;overflow=hidden;rotatable=0;points=[[0,0.5],[1,0.5]];portConstraint=eastwest;" vertex="1" parent="28">
          <mxGeometry y="382.6875" width="240" height="25" as="geometry" />
        </mxCell>
        <mxCell id="45" value="Batch" style="swimlane;fontStyle=1;align=center;verticalAlign=top;childLayout=stackLayout;horizontal=1;startSize=26;horizontalStack=0;resizeParent=1;resizeParentMax=0;resizeLast=0;collapsible=0;marginBottom=0;" vertex="1" parent="1">
          <mxGeometry x="1130" y="295.69" width="256" height="242" as="geometry" />
        </mxCell>
        <mxCell id="46" value="+ Batch ID (PK)" style="text;strokeColor=none;fillColor=none;align=left;verticalAlign=top;spacingLeft=4;spacingRight=4;overflow=hidden;rotatable=0;points=[[0,0.5],[1,0.5]];portConstraint=eastwest;" vertex="1" parent="45">
          <mxGeometry y="26" width="256" height="26" as="geometry" />
        </mxCell>
        <mxCell id="47" value="+ Product ID (FK)" style="text;strokeColor=none;fillColor=none;align=left;verticalAlign=top;spacingLeft=4;spacingRight=4;overflow=hidden;rotatable=0;points=[[0,0.5],[1,0.5]];portConstraint=eastwest;" vertex="1" parent="45">
          <mxGeometry y="52" width="256" height="26" as="geometry" />
        </mxCell>
        <mxCell id="48" value="+ Quantity" style="text;strokeColor=none;fillColor=none;align=left;verticalAlign=top;spacingLeft=4;spacingRight=4;overflow=hidden;rotatable=0;points=[[0,0.5],[1,0.5]];portConstraint=eastwest;" vertex="1" parent="45">
          <mxGeometry y="78" width="256" height="26" as="geometry" />
        </mxCell>
        <mxCell id="49" value="+ Quantity Max" style="text;strokeColor=none;fillColor=none;align=left;verticalAlign=top;spacingLeft=4;spacingRight=4;overflow=hidden;rotatable=0;points=[[0,0.5],[1,0.5]];portConstraint=eastwest;" vertex="1" parent="45">
          <mxGeometry y="104" width="256" height="26" as="geometry" />
        </mxCell>
        <mxCell id="50" value="+ Batch Value Total" style="text;strokeColor=none;fillColor=none;align=left;verticalAlign=top;spacingLeft=4;spacingRight=4;overflow=hidden;rotatable=0;points=[[0,0.5],[1,0.5]];portConstraint=eastwest;" vertex="1" parent="45">
          <mxGeometry y="130" width="256" height="26" as="geometry" />
        </mxCell>
        <mxCell id="51" style="line;strokeWidth=1;fillColor=none;align=left;verticalAlign=middle;spacingTop=-1;spacingLeft=3;spacingRight=3;rotatable=0;labelPosition=right;points=[];portConstraint=eastwest;strokeColor=inherit;" vertex="1" parent="45">
          <mxGeometry y="156" width="256" height="8" as="geometry" />
        </mxCell>
        <mxCell id="52" value="+ Expiration Date" style="text;strokeColor=none;fillColor=none;align=left;verticalAlign=top;spacingLeft=4;spacingRight=4;overflow=hidden;rotatable=0;points=[[0,0.5],[1,0.5]];portConstraint=eastwest;" vertex="1" parent="45">
          <mxGeometry y="164" width="256" height="26" as="geometry" />
        </mxCell>
        <mxCell id="53" value="+ Manufacture Date" style="text;strokeColor=none;fillColor=none;align=left;verticalAlign=top;spacingLeft=4;spacingRight=4;overflow=hidden;rotatable=0;points=[[0,0.5],[1,0.5]];portConstraint=eastwest;" vertex="1" parent="45">
          <mxGeometry y="190" width="256" height="26" as="geometry" />
        </mxCell>
        <mxCell id="54" value="+ Created At" style="text;strokeColor=none;fillColor=none;align=left;verticalAlign=top;spacingLeft=4;spacingRight=4;overflow=hidden;rotatable=0;points=[[0,0.5],[1,0.5]];portConstraint=eastwest;" vertex="1" parent="45">
          <mxGeometry y="216" width="256" height="26" as="geometry" />
        </mxCell>
        <mxCell id="55" value="Local" style="swimlane;fontStyle=1;align=center;verticalAlign=top;childLayout=stackLayout;horizontal=1;startSize=28.4;horizontalStack=0;resizeParent=1;resizeParentMax=0;resizeLast=0;collapsible=0;marginBottom=0;" vertex="1" parent="1">
          <mxGeometry x="2180" y="950" width="233" height="148.4" as="geometry" />
        </mxCell>
        <mxCell id="56" value="+ Local ID (PK)" style="text;strokeColor=none;fillColor=none;align=left;verticalAlign=top;spacingLeft=4;spacingRight=4;overflow=hidden;rotatable=0;points=[[0,0.5],[1,0.5]];portConstraint=eastwest;" vertex="1" parent="55">
          <mxGeometry y="28.4" width="233" height="28" as="geometry" />
        </mxCell>
        <mxCell id="57" style="line;strokeWidth=1;fillColor=none;align=left;verticalAlign=middle;spacingTop=-1;spacingLeft=3;spacingRight=3;rotatable=0;labelPosition=right;points=[];portConstraint=eastwest;strokeColor=inherit;" vertex="1" parent="55">
          <mxGeometry y="56.4" width="233" height="8" as="geometry" />
        </mxCell>
        <mxCell id="58" value="+ Local Name" style="text;strokeColor=none;fillColor=none;align=left;verticalAlign=top;spacingLeft=4;spacingRight=4;overflow=hidden;rotatable=0;points=[[0,0.5],[1,0.5]];portConstraint=eastwest;" vertex="1" parent="55">
          <mxGeometry y="64.4" width="233" height="28" as="geometry" />
        </mxCell>
        <mxCell id="59" value="+ Local Adress" style="text;strokeColor=none;fillColor=none;align=left;verticalAlign=top;spacingLeft=4;spacingRight=4;overflow=hidden;rotatable=0;points=[[0,0.5],[1,0.5]];portConstraint=eastwest;" vertex="1" parent="55">
          <mxGeometry y="92.4" width="233" height="28" as="geometry" />
        </mxCell>
        <mxCell id="60" value="+ Created At" style="text;strokeColor=none;fillColor=none;align=left;verticalAlign=top;spacingLeft=4;spacingRight=4;overflow=hidden;rotatable=0;points=[[0,0.5],[1,0.5]];portConstraint=eastwest;" vertex="1" parent="55">
          <mxGeometry y="120.4" width="233" height="28" as="geometry" />
        </mxCell>
        <mxCell id="61" value="Setor" style="swimlane;fontStyle=1;align=center;verticalAlign=top;childLayout=stackLayout;horizontal=1;startSize=28.4;horizontalStack=0;resizeParent=1;resizeParentMax=0;resizeLast=0;collapsible=0;marginBottom=0;" vertex="1" parent="1">
          <mxGeometry x="2760" y="470" width="228" height="148.4" as="geometry" />
        </mxCell>
        <mxCell id="62" value="+ Sector ID (PK)" style="text;strokeColor=none;fillColor=none;align=left;verticalAlign=top;spacingLeft=4;spacingRight=4;overflow=hidden;rotatable=0;points=[[0,0.5],[1,0.5]];portConstraint=eastwest;" vertex="1" parent="61">
          <mxGeometry y="28.4" width="228" height="28" as="geometry" />
        </mxCell>
        <mxCell id="63" value="+ Local ID (FK)" style="text;strokeColor=none;fillColor=none;align=left;verticalAlign=top;spacingLeft=4;spacingRight=4;overflow=hidden;rotatable=0;points=[[0,0.5],[1,0.5]];portConstraint=eastwest;" vertex="1" parent="61">
          <mxGeometry y="56.4" width="228" height="28" as="geometry" />
        </mxCell>
        <mxCell id="64" style="line;strokeWidth=1;fillColor=none;align=left;verticalAlign=middle;spacingTop=-1;spacingLeft=3;spacingRight=3;rotatable=0;labelPosition=right;points=[];portConstraint=eastwest;strokeColor=inherit;" vertex="1" parent="61">
          <mxGeometry y="84.4" width="228" height="8" as="geometry" />
        </mxCell>
        <mxCell id="65" value="+ Sector Name&#xa;" style="text;strokeColor=none;fillColor=none;align=left;verticalAlign=top;spacingLeft=4;spacingRight=4;overflow=hidden;rotatable=0;points=[[0,0.5],[1,0.5]];portConstraint=eastwest;" vertex="1" parent="61">
          <mxGeometry y="92.4" width="228" height="28" as="geometry" />
        </mxCell>
        <mxCell id="66" value="+ Created At" style="text;strokeColor=none;fillColor=none;align=left;verticalAlign=top;spacingLeft=4;spacingRight=4;overflow=hidden;rotatable=0;points=[[0,0.5],[1,0.5]];portConstraint=eastwest;" vertex="1" parent="61">
          <mxGeometry y="120.4" width="228" height="28" as="geometry" />
        </mxCell>
        <mxCell id="67" value="Usuário" style="swimlane;fontStyle=1;align=center;verticalAlign=top;childLayout=stackLayout;horizontal=1;startSize=26;horizontalStack=0;resizeParent=1;resizeParentMax=0;resizeLast=0;collapsible=0;marginBottom=0;" vertex="1" parent="1">
          <mxGeometry x="1700" y="490" width="332" height="242" as="geometry" />
        </mxCell>
        <mxCell id="68" value="+ User ID (PK)" style="text;strokeColor=none;fillColor=none;align=left;verticalAlign=top;spacingLeft=4;spacingRight=4;overflow=hidden;rotatable=0;points=[[0,0.5],[1,0.5]];portConstraint=eastwest;" vertex="1" parent="67">
          <mxGeometry y="26" width="332" height="26" as="geometry" />
        </mxCell>
        <mxCell id="69" style="line;strokeWidth=1;fillColor=none;align=left;verticalAlign=middle;spacingTop=-1;spacingLeft=3;spacingRight=3;rotatable=0;labelPosition=right;points=[];portConstraint=eastwest;strokeColor=inherit;" vertex="1" parent="67">
          <mxGeometry y="52" width="332" height="8" as="geometry" />
        </mxCell>
        <mxCell id="70" value="+ Username" style="text;strokeColor=none;fillColor=none;align=left;verticalAlign=top;spacingLeft=4;spacingRight=4;overflow=hidden;rotatable=0;points=[[0,0.5],[1,0.5]];portConstraint=eastwest;" vertex="1" parent="67">
          <mxGeometry y="60" width="332" height="26" as="geometry" />
        </mxCell>
        <mxCell id="71" value="+ Email" style="text;strokeColor=none;fillColor=none;align=left;verticalAlign=top;spacingLeft=4;spacingRight=4;overflow=hidden;rotatable=0;points=[[0,0.5],[1,0.5]];portConstraint=eastwest;" vertex="1" parent="67">
          <mxGeometry y="86" width="332" height="26" as="geometry" />
        </mxCell>
        <mxCell id="72" value="+ Password" style="text;strokeColor=none;fillColor=none;align=left;verticalAlign=top;spacingLeft=4;spacingRight=4;overflow=hidden;rotatable=0;points=[[0,0.5],[1,0.5]];portConstraint=eastwest;" vertex="1" parent="67">
          <mxGeometry y="112" width="332" height="26" as="geometry" />
        </mxCell>
        <mxCell id="73" value="+ Role" style="text;strokeColor=none;fillColor=none;align=left;verticalAlign=top;spacingLeft=4;spacingRight=4;overflow=hidden;rotatable=0;points=[[0,0.5],[1,0.5]];portConstraint=eastwest;" vertex="1" parent="67">
          <mxGeometry y="138" width="332" height="26" as="geometry" />
        </mxCell>
        <mxCell id="74" value="+ Created At" style="text;strokeColor=none;fillColor=none;align=left;verticalAlign=top;spacingLeft=4;spacingRight=4;overflow=hidden;rotatable=0;points=[[0,0.5],[1,0.5]];portConstraint=eastwest;" vertex="1" parent="67">
          <mxGeometry y="164" width="332" height="26" as="geometry" />
        </mxCell>
        <mxCell id="75" value="+ Status" style="text;strokeColor=none;fillColor=none;align=left;verticalAlign=top;spacingLeft=4;spacingRight=4;overflow=hidden;rotatable=0;points=[[0,0.5],[1,0.5]];portConstraint=eastwest;" vertex="1" parent="67">
          <mxGeometry y="190" width="332" height="26" as="geometry" />
        </mxCell>
        <mxCell id="76" value="+ User Image" style="text;strokeColor=none;fillColor=none;align=left;verticalAlign=top;spacingLeft=4;spacingRight=4;overflow=hidden;rotatable=0;points=[[0,0.5],[1,0.5]];portConstraint=eastwest;" vertex="1" parent="67">
          <mxGeometry y="216" width="332" height="26" as="geometry" />
        </mxCell>
        <mxCell id="77" value="RegistroAuditoria" style="swimlane;fontStyle=1;align=center;verticalAlign=top;childLayout=stackLayout;horizontal=1;startSize=24.285714285714285;horizontalStack=0;resizeParent=1;resizeParentMax=0;resizeLast=0;collapsible=0;marginBottom=0;" vertex="1" parent="1">
          <mxGeometry x="2659" y="8" width="324" height="416.2857142857143" as="geometry" />
        </mxCell>
        <mxCell id="78" value="+ Log ID (PK)" style="text;strokeColor=none;fillColor=none;align=left;verticalAlign=top;spacingLeft=4;spacingRight=4;overflow=hidden;rotatable=0;points=[[0,0.5],[1,0.5]];portConstraint=eastwest;" vertex="1" parent="77">
          <mxGeometry y="24.285714285714285" width="324" height="24" as="geometry" />
        </mxCell>
        <mxCell id="79" value="+ User ID (FK)" style="text;strokeColor=none;fillColor=none;align=left;verticalAlign=top;spacingLeft=4;spacingRight=4;overflow=hidden;rotatable=0;points=[[0,0.5],[1,0.5]];portConstraint=eastwest;" vertex="1" parent="77">
          <mxGeometry y="48.285714285714285" width="324" height="24" as="geometry" />
        </mxCell>
        <mxCell id="80" value="+ Local ID (FK)" style="text;strokeColor=none;fillColor=none;align=left;verticalAlign=top;spacingLeft=4;spacingRight=4;overflow=hidden;rotatable=0;points=[[0,0.5],[1,0.5]];portConstraint=eastwest;" vertex="1" parent="77">
          <mxGeometry y="72.28571428571428" width="324" height="24" as="geometry" />
        </mxCell>
        <mxCell id="81" value="+ Sector ID (FK)" style="text;strokeColor=none;fillColor=none;align=left;verticalAlign=top;spacingLeft=4;spacingRight=4;overflow=hidden;rotatable=0;points=[[0,0.5],[1,0.5]];portConstraint=eastwest;" vertex="1" parent="77">
          <mxGeometry y="96.28571428571428" width="324" height="24" as="geometry" />
        </mxCell>
        <mxCell id="82" value="+ Supplier ID (FK)" style="text;strokeColor=none;fillColor=none;align=left;verticalAlign=top;spacingLeft=4;spacingRight=4;overflow=hidden;rotatable=0;points=[[0,0.5],[1,0.5]];portConstraint=eastwest;" vertex="1" parent="77">
          <mxGeometry y="120.28571428571428" width="324" height="24" as="geometry" />
        </mxCell>
        <mxCell id="83" value="+ Batch ID (FK)" style="text;strokeColor=none;fillColor=none;align=left;verticalAlign=top;spacingLeft=4;spacingRight=4;overflow=hidden;rotatable=0;points=[[0,0.5],[1,0.5]];portConstraint=eastwest;" vertex="1" parent="77">
          <mxGeometry y="144.28571428571428" width="324" height="24" as="geometry" />
        </mxCell>
        <mxCell id="84" value="+ Category ID (FK)" style="text;strokeColor=none;fillColor=none;align=left;verticalAlign=top;spacingLeft=4;spacingRight=4;overflow=hidden;rotatable=0;points=[[0,0.5],[1,0.5]];portConstraint=eastwest;" vertex="1" parent="77">
          <mxGeometry y="168.28571428571428" width="324" height="24" as="geometry" />
        </mxCell>
        <mxCell id="85" value="+ Product ID (FK)" style="text;strokeColor=none;fillColor=none;align=left;verticalAlign=top;spacingLeft=4;spacingRight=4;overflow=hidden;rotatable=0;points=[[0,0.5],[1,0.5]];portConstraint=eastwest;" vertex="1" parent="77">
          <mxGeometry y="192.28571428571428" width="324" height="24" as="geometry" />
        </mxCell>
        <mxCell id="86" value="+ Product Stock" style="text;strokeColor=none;fillColor=none;align=left;verticalAlign=top;spacingLeft=4;spacingRight=4;overflow=hidden;rotatable=0;points=[[0,0.5],[1,0.5]];portConstraint=eastwest;" vertex="1" parent="77">
          <mxGeometry y="216.28571428571428" width="324" height="24" as="geometry" />
        </mxCell>
        <mxCell id="87" value="+ Product Stock Min" style="text;strokeColor=none;fillColor=none;align=left;verticalAlign=top;spacingLeft=4;spacingRight=4;overflow=hidden;rotatable=0;points=[[0,0.5],[1,0.5]];portConstraint=eastwest;" vertex="1" parent="77">
          <mxGeometry y="240.28571428571428" width="324" height="24" as="geometry" />
        </mxCell>
        <mxCell id="88" value="+ Quantity Max" style="text;strokeColor=none;fillColor=none;align=left;verticalAlign=top;spacingLeft=4;spacingRight=4;overflow=hidden;rotatable=0;points=[[0,0.5],[1,0.5]];portConstraint=eastwest;" vertex="1" parent="77">
          <mxGeometry y="264.2857142857143" width="324" height="24" as="geometry" />
        </mxCell>
        <mxCell id="89" style="line;strokeWidth=1;fillColor=none;align=left;verticalAlign=middle;spacingTop=-1;spacingLeft=3;spacingRight=3;rotatable=0;labelPosition=right;points=[];portConstraint=eastwest;strokeColor=inherit;" vertex="1" parent="77">
          <mxGeometry y="288.2857142857143" width="324" height="8" as="geometry" />
        </mxCell>
        <mxCell id="90" value="+ Supplier Name" style="text;strokeColor=none;fillColor=none;align=left;verticalAlign=top;spacingLeft=4;spacingRight=4;overflow=hidden;rotatable=0;points=[[0,0.5],[1,0.5]];portConstraint=eastwest;" vertex="1" parent="77">
          <mxGeometry y="296.2857142857143" width="324" height="24" as="geometry" />
        </mxCell>
        <mxCell id="91" value="+ Category Name" style="text;strokeColor=none;fillColor=none;align=left;verticalAlign=top;spacingLeft=4;spacingRight=4;overflow=hidden;rotatable=0;points=[[0,0.5],[1,0.5]];portConstraint=eastwest;" vertex="1" parent="77">
          <mxGeometry y="320.2857142857143" width="324" height="24" as="geometry" />
        </mxCell>
        <mxCell id="92" value="+ Product Name" style="text;strokeColor=none;fillColor=none;align=left;verticalAlign=top;spacingLeft=4;spacingRight=4;overflow=hidden;rotatable=0;points=[[0,0.5],[1,0.5]];portConstraint=eastwest;" vertex="1" parent="77">
          <mxGeometry y="344.2857142857143" width="324" height="24" as="geometry" />
        </mxCell>
        <mxCell id="93" value="+ Action: ENUM(&#39;INSERT&#39;, &#39;UPDATE&#39;, &#39;DELETE&#39;)" style="text;strokeColor=none;fillColor=none;align=left;verticalAlign=top;spacingLeft=4;spacingRight=4;overflow=hidden;rotatable=0;points=[[0,0.5],[1,0.5]];portConstraint=eastwest;" vertex="1" parent="77">
          <mxGeometry y="368.2857142857143" width="324" height="24" as="geometry" />
        </mxCell>
        <mxCell id="94" value="+ Table Name" style="text;strokeColor=none;fillColor=none;align=left;verticalAlign=top;spacingLeft=4;spacingRight=4;overflow=hidden;rotatable=0;points=[[0,0.5],[1,0.5]];portConstraint=eastwest;" vertex="1" parent="77">
          <mxGeometry y="392.2857142857143" width="324" height="24" as="geometry" />
        </mxCell>
        <mxCell id="99" value="StockMovement" style="swimlane;fontStyle=1;align=center;verticalAlign=top;childLayout=stackLayout;horizontal=1;startSize=25.25;horizontalStack=0;resizeParent=1;resizeParentMax=0;resizeLast=0;collapsible=0;marginBottom=0;" vertex="1" parent="1">
          <mxGeometry x="1720" y="780" width="319" height="308.25" as="geometry" />
        </mxCell>
        <mxCell id="100" value="+ Movement ID (PK)" style="text;strokeColor=none;fillColor=none;align=left;verticalAlign=top;spacingLeft=4;spacingRight=4;overflow=hidden;rotatable=0;points=[[0,0.5],[1,0.5]];portConstraint=eastwest;" vertex="1" parent="99">
          <mxGeometry y="25.25" width="319" height="25" as="geometry" />
        </mxCell>
        <mxCell id="101" value="+ Batch ID (FK)" style="text;strokeColor=none;fillColor=none;align=left;verticalAlign=top;spacingLeft=4;spacingRight=4;overflow=hidden;rotatable=0;points=[[0,0.5],[1,0.5]];portConstraint=eastwest;" vertex="1" parent="99">
          <mxGeometry y="50.25" width="319" height="25" as="geometry" />
        </mxCell>
        <mxCell id="102" value="+ Quantity" style="text;strokeColor=none;fillColor=none;align=left;verticalAlign=top;spacingLeft=4;spacingRight=4;overflow=hidden;rotatable=0;points=[[0,0.5],[1,0.5]];portConstraint=eastwest;" vertex="1" parent="99">
          <mxGeometry y="75.25" width="319" height="25" as="geometry" />
        </mxCell>
        <mxCell id="103" value="+ Quantity MAX" style="text;strokeColor=none;fillColor=none;align=left;verticalAlign=top;spacingLeft=4;spacingRight=4;overflow=hidden;rotatable=0;points=[[0,0.5],[1,0.5]];portConstraint=eastwest;" vertex="1" parent="99">
          <mxGeometry y="100.25" width="319" height="25" as="geometry" />
        </mxCell>
        <mxCell id="104" value="+ Product Stock" style="text;strokeColor=none;fillColor=none;align=left;verticalAlign=top;spacingLeft=4;spacingRight=4;overflow=hidden;rotatable=0;points=[[0,0.5],[1,0.5]];portConstraint=eastwest;" vertex="1" parent="99">
          <mxGeometry y="125.25" width="319" height="25" as="geometry" />
        </mxCell>
        <mxCell id="105" value="+ Product Stock Min" style="text;strokeColor=none;fillColor=none;align=left;verticalAlign=top;spacingLeft=4;spacingRight=4;overflow=hidden;rotatable=0;points=[[0,0.5],[1,0.5]];portConstraint=eastwest;" vertex="1" parent="99">
          <mxGeometry y="150.25" width="319" height="25" as="geometry" />
        </mxCell>
        <mxCell id="106" value="+ User ID (FK)" style="text;strokeColor=none;fillColor=none;align=left;verticalAlign=top;spacingLeft=4;spacingRight=4;overflow=hidden;rotatable=0;points=[[0,0.5],[1,0.5]];portConstraint=eastwest;" vertex="1" parent="99">
          <mxGeometry y="175.25" width="319" height="25" as="geometry" />
        </mxCell>
        <mxCell id="107" value="+ Category ID (FK)" style="text;strokeColor=none;fillColor=none;align=left;verticalAlign=top;spacingLeft=4;spacingRight=4;overflow=hidden;rotatable=0;points=[[0,0.5],[1,0.5]];portConstraint=eastwest;" vertex="1" parent="99">
          <mxGeometry y="200.25" width="319" height="25" as="geometry" />
        </mxCell>
        <mxCell id="108" value="+ Product ID (FK)" style="text;strokeColor=none;fillColor=none;align=left;verticalAlign=top;spacingLeft=4;spacingRight=4;overflow=hidden;rotatable=0;points=[[0,0.5],[1,0.5]];portConstraint=eastwest;" vertex="1" parent="99">
          <mxGeometry y="225.25" width="319" height="25" as="geometry" />
        </mxCell>
        <mxCell id="109" style="line;strokeWidth=1;fillColor=none;align=left;verticalAlign=middle;spacingTop=-1;spacingLeft=3;spacingRight=3;rotatable=0;labelPosition=right;points=[];portConstraint=eastwest;strokeColor=inherit;" vertex="1" parent="99">
          <mxGeometry y="250.25" width="319" height="8" as="geometry" />
        </mxCell>
        <mxCell id="110" value="+ Movement Type" style="text;strokeColor=none;fillColor=none;align=left;verticalAlign=top;spacingLeft=4;spacingRight=4;overflow=hidden;rotatable=0;points=[[0,0.5],[1,0.5]];portConstraint=eastwest;" vertex="1" parent="99">
          <mxGeometry y="258.25" width="319" height="25" as="geometry" />
        </mxCell>
        <mxCell id="111" value="+ Movement Date" style="text;strokeColor=none;fillColor=none;align=left;verticalAlign=top;spacingLeft=4;spacingRight=4;overflow=hidden;rotatable=0;points=[[0,0.5],[1,0.5]];portConstraint=eastwest;" vertex="1" parent="99">
          <mxGeometry y="283.25" width="319" height="25" as="geometry" />
        </mxCell>
        <mxCell id="t1PBaK7_2KviyY6SXdtr-124" value="" style="edgeStyle=entityRelationEdgeStyle;fontSize=12;html=1;endArrow=ERoneToMany;rounded=0;" edge="1" parent="1" source="68" target="79">
          <mxGeometry width="100" height="100" relative="1" as="geometry">
            <mxPoint x="2680" y="370" as="sourcePoint" />
            <mxPoint x="2620" y="410" as="targetPoint" />
          </mxGeometry>
        </mxCell>
        <mxCell id="t1PBaK7_2KviyY6SXdtr-125" value="" style="edgeStyle=entityRelationEdgeStyle;fontSize=12;html=1;endArrow=ERoneToMany;rounded=0;" edge="1" parent="1" source="56" target="63">
          <mxGeometry width="100" height="100" relative="1" as="geometry">
            <mxPoint x="2300" y="861" as="sourcePoint" />
            <mxPoint x="2340" y="740" as="targetPoint" />
            <Array as="points">
              <mxPoint x="2300" y="740" />
            </Array>
          </mxGeometry>
        </mxCell>
        <mxCell id="t1PBaK7_2KviyY6SXdtr-126" value="" style="edgeStyle=entityRelationEdgeStyle;fontSize=12;html=1;endArrow=ERoneToMany;rounded=0;" edge="1" parent="1" source="62" target="81">
          <mxGeometry width="100" height="100" relative="1" as="geometry">
            <mxPoint x="2570" y="450" as="sourcePoint" />
            <mxPoint x="2670" y="350" as="targetPoint" />
          </mxGeometry>
        </mxCell>
        <mxCell id="t1PBaK7_2KviyY6SXdtr-127" value="" style="edgeStyle=entityRelationEdgeStyle;fontSize=12;html=1;endArrow=ERoneToMany;rounded=0;" edge="1" parent="1" source="17" target="33">
          <mxGeometry width="100" height="100" relative="1" as="geometry">
            <mxPoint x="1610" y="480" as="sourcePoint" />
            <mxPoint x="1690" y="220" as="targetPoint" />
          </mxGeometry>
        </mxCell>
        <mxCell id="t1PBaK7_2KviyY6SXdtr-128" value="" style="edgeStyle=entityRelationEdgeStyle;fontSize=12;html=1;endArrow=ERoneToMany;rounded=0;" edge="1" parent="1" source="11" target="32">
          <mxGeometry width="100" height="100" relative="1" as="geometry">
            <mxPoint x="1700" y="560" as="sourcePoint" />
            <mxPoint x="1800" y="460" as="targetPoint" />
          </mxGeometry>
        </mxCell>
        <mxCell id="t1PBaK7_2KviyY6SXdtr-129" value="" style="edgeStyle=entityRelationEdgeStyle;fontSize=12;html=1;endArrow=ERoneToMany;rounded=0;" edge="1" parent="1" source="29" target="47">
          <mxGeometry width="100" height="100" relative="1" as="geometry">
            <mxPoint x="2080" y="200" as="sourcePoint" />
            <mxPoint x="2180" y="100" as="targetPoint" />
          </mxGeometry>
        </mxCell>
        <mxCell id="t1PBaK7_2KviyY6SXdtr-130" value="" style="edgeStyle=entityRelationEdgeStyle;fontSize=12;html=1;endArrow=ERoneToMany;rounded=0;" edge="1" parent="1" source="46" target="101">
          <mxGeometry width="100" height="100" relative="1" as="geometry">
            <mxPoint x="2090" y="130" as="sourcePoint" />
            <mxPoint x="2190" y="30" as="targetPoint" />
          </mxGeometry>
        </mxCell>
        <mxCell id="t1PBaK7_2KviyY6SXdtr-131" value="" style="edgeStyle=entityRelationEdgeStyle;fontSize=12;html=1;endArrow=ERoneToMany;rounded=0;" edge="1" parent="1" source="29" target="108">
          <mxGeometry width="100" height="100" relative="1" as="geometry">
            <mxPoint x="2010" y="108" as="sourcePoint" />
            <mxPoint x="2110" y="8" as="targetPoint" />
          </mxGeometry>
        </mxCell>
        <mxCell id="t1PBaK7_2KviyY6SXdtr-133" value="" style="edgeStyle=entityRelationEdgeStyle;fontSize=12;html=1;endArrow=ERoneToMany;rounded=0;" edge="1" parent="1" source="25" target="34">
          <mxGeometry width="100" height="100" relative="1" as="geometry">
            <mxPoint x="2220" y="390" as="sourcePoint" />
            <mxPoint x="2320" y="290" as="targetPoint" />
          </mxGeometry>
        </mxCell>
      </root>
    </mxGraphModel>
  </diagram>
</mxfile>
